/* XPM */
static char *f5383eca452b46088d9a9db3d73ad43cGpZa0szLhbKuq2nI[] = {
/* columns rows colors chars-per-pixel */
"32 32 5 1 ",
"  c #9B8F5E",
". c #796959",
"X c #AE9774",
"o c #B5A270",
"O c white",
/* pixels */
"           .                    ",
"XXXXXXXXXX .oooXoXXXXXXXXXXXXXXX",
"XooXoXXoXX .ooooooooooooooXXoooX",
"XXXXXXXXXX .ooXoXXoXoXXXXXXXXXXX",
"XoXoXXoXXX .oooooooooooooooooXoo",
"XXXXXXXXXX .oooooooXooXoXXXoXXXX",
"ooooooooooX.oooooooooooooooooooo",
"................................",
"                           .    ",
"oXXXXXXXXXXXXXXXXXXXXXXXXX .ooXo",
"oooooooooooXooXoXoXXoXXXXX .oooo",
"ooXoXoXXXXXXXXXXXXXXXXXXXX .oooo",
"oooooooooooooooooooXooXoXo .oooo",
"ooooooooXoXoXXXXXXXXXXXXXX .oooo",
"ooooooooooooooooooooooooooX.oooo",
"................................",
"                 .              ",
"XXXXXXXXXXXXXXXX .ooooXXoXXXXXXX",
"XXoooXXoXXoXoXXX .ooooooooooooXX",
"XXXXXXXXXXXXXXXX .oooooXoXXoXXXX",
"oooXooXoXoXXXoXX .oooooooooooooo",
"XoXXXXXXXXXXXXXX .ooooooooXooXXo",
"ooooooooooooooooX.oooooooooooooo",
"................................",
"     .                          ",
"XXXX .ooooXoXXXXXXXXXXXXXXXXXXXX",
"XXXX .ooooooooooooooXXooXXoXoXXo",
"XXXX .oooooXooXoXoXXXXXXXXXXXXXX",
"XoXo .ooooooooooooooooooXoXoooXX",
"XXXX .ooooooXoXooXXoXXXXXXXXXXXX",
"ooooX.oooooooooooooooooooooooooo",
"................................"
};
