/* XPM */
static char *da28cd45bdbd47ccefe7ba70223997a6owxhzL4CO4DjuTmc[] = {
/* columns rows colors chars-per-pixel */
"32 32 24 1 ",
"  c None",
". c #3D3300",
"X c #543F13",
"o c #1A4C1B",
"O c #35740D",
"+ c #785D15",
"@ c #6C4C27",
"# c #96710D",
"$ c #946630",
"% c #C27C2C",
"& c #857963",
"* c #509C00",
"= c #CA9911",
"- c #E7AE13",
"; c #87CB00",
": c #9A8F40",
"> c #B1A451",
", c #A19379",
"< c #C5B657",
"1 c #ECB87C",
"2 c #B4DE60",
"3 c #FFDB78",
"4 c #BEAD90",
"5 c #DAD090",
/* pixels */
"                                ",
"                                ",
"                                ",
"                                ",
"                                ",
"        ++                      ",
"       +-=+          ++         ",
"       O=#O         +==+        ",
"       o;*o        .#3-+.       ",
"       oOOo       .$#=#+X.      ",
"       o*Oo       .X%#+$X.      ",
"       o;Oo        .X1%X.       ",
"      oO;O*o       ......       ",
"     oO;2*O*o      .X$$X.       ",
"     o*22*OOo    ..X@%$@X..     ",
"    o*;2;;*OOo  .@$%11$$$@X.    ",
"    o*;;;;*O*o .@$%%%%%$$@@X.   ",
"    o*5<<<>:*o .@%4,,,4,,4@$.   ",
"    o*5<><>:*o .@%4,&,&,&4@$.   ",
"    o*>><>>:*o .@$4,&&,&,4@$.   ",
"    o*;;;;*O*o .X@$$$$$$$@$X.   ",
"    oO*;;*O*Oo  .X@@@@@@@XX.    ",
"     oOOOOOOo    ..XXXXXX..     ",
"      oooooo       ......       ",
"                                ",
"                                ",
"                                ",
"                                ",
"                                ",
"                                ",
"                                ",
"                                "
};
