/* XPM */
static char *ad4358b89fc54478950f4a4b749710bf6bUGds34YYVwAVb7[] = {
/* columns rows colors chars-per-pixel */
"32 32 8 1 ",
"  c #5E5A60",
". c #6D6970",
"X c #444444",
"o c #89646A",
"O c #79585E",
"+ c #4E4E4E",
"@ c #9F757D",
"# c white",
/* pixels */
" ...      .   ..   .  .  .    ..",
"XooooooOOoOoOOX+XooooooOOoOoOOX+",
"ooooooooooooooOXooooooooooooooOX",
"@oooooooooooooOX@oooooooooooooOX",
"oooooooooooooooXooooooooooooooOX",
"@oooooooooooooO+@ooooooooooooooX",
"@ooooooooooooooXooooooooooooooOX",
"oooooooooooooooX@oooooooooooooOX",
"@oooooooooooooOX@ooooooooooooooX",
"@ooooooooooooooXooooooooooooooOX",
"ooooooooooooooo+@ooooooooooooooX",
"@ooooooooooooooX@oooooooooooooo+",
"@ooooooooooooooX@oooooooooooooo+",
"@oooooooooooooo+ooooooooooooooo+",
"@oooooooooooooo+@oooooooooooooo+",
"+@@@o@o@o@@o@oX+X@@o@o@o@@o@ooXX",
"++XXX+XXXXXX+++++XXXXXXXX+XXX+++",
"XooooOooOOoOOOX+XoooOooOoOOoOOX+",
"ooooooooooooooO+ooooooooooooooOX",
"@oooooooooooooOX@oooooooooooooO+",
"@oooooooooooooOX@oooooooooooooOX",
"@ooooooooooooooX@oooooooooooooOX",
"@oooooooooooooOX@ooooooooooooooX",
"oooooooooooooooXooooooooooooooOX",
"@ooooooooooooooX@oooooooooooooo+",
"@oooooooooooooO+oooooooooooooooX",
"ooooooooooooooOX@oooooooooooooOX",
"@ooooooooooooooXoooooooooooooooX",
"@ooooooooooooooXoooooooooooooooX",
"ooooooooooooooo+@ooooooooooooooX",
"@oooooooooooooo+@ooooooooooooooX",
"+@@@o@@o@oo@ooX++@@o@o@@ooo@ooX+"
};
