/* XPM */
static char *result[] = {
/* columns rows colors chars-per-pixel */
"32 32 5 1 ",
"  c #252120",
". c #DDD7BE",
"X c #BFB296",
"o c #897F65",
"O c white",
/* pixels */
"                                ",
"                                ",
"    ........................    ",
"    ........................    ",
"  ....XXXXXXXXXXXX..XXXXXXoooo  ",
"  ....XXXXXXXXXXXX..XXXXXXoooo  ",
"  ..XXXXXXXXooXXXXXXXXXXXXXX    ",
"  ..XXXXXXXXooXXXXXXXXXXXXXX    ",
"  ....XXXXXXXXXXXXXXXXXXXXXXoo  ",
"  ....XXXXXXXXXXXXXXXXXXXXXXoo  ",
"  ..XXXXXXXXXXXXXXXXXXXXXXoooo  ",
"  ..XXXXXXXXXXXXXXXXXXXXXXoooo  ",
"  ..XXXXXXXXXXXXXXXXXXXXXXXXoo  ",
"  ..XXXXXXXXXXXXXXXXXXXXXXXXoo  ",
"  ..XXXXXXXXXXXXXXXXXXXXXXXXoo  ",
"  ..XXXXXXXXXXXXXXXXXXXXXXXXoo  ",
"  ..XXXXXXXXXXXXXXXXXXXXXXXXoo  ",
"  ..XXXXXXXXXXXXXXXXXXXXXXXXoo  ",
"  ..XXXXXXXXXXXXXXXXXXXXXXXXoo  ",
"  ..XXXXXXXXXXXXXXXXXXXXXXXXoo  ",
"  ....XXXXXXXXXXXXXXXXXXXXXXoo  ",
"  ....XXXXXXXXXXXXXXXXXXXXXXoo  ",
"  ....XXXXXXXXXXXXXXXXXXXXoo    ",
"  ....XXXXXXXXXXXXXXXXXXXXoo    ",
"  ..XXXXXXXXXXXXXXXXXXXXXXXXoo  ",
"  ..XXXXXXXXXXXXXXXXXXXXXXXXoo  ",
"  ..ooXXXXXXXXXXXXooooXXXXoooo  ",
"  ..ooXXXXXXXXXXXXooooXXXXoooo  ",
"    oooo  oooooooooooooooooo    ",
"    oooo  oooooooooooooooooo    ",
"                                ",
"                                "
};
