/* XPM */
static char *_b5ec21b336e43eda76f07ca98484238QP7DdtHIEKHjbSAv[] = {
/* columns rows colors chars-per-pixel */
"33 33 6 1 ",
"  c None",
". c black",
"X c gray10",
"o c gray16",
"O c #A4000A",
"+ c #E4000E",
/* pixels */
"                                 ",
"                                 ",
"                                 ",
"                                 ",
"            .........            ",
"         .............           ",
"       .....XXXXXXXX....         ",
"      ....XXooooooooXX...        ",
"      ...XooooooooooooX...       ",
"     ...XooooooooooooooX...      ",
"     ..XooooooooooooooooX...     ",
"    ..XooooooooooooooooooX...    ",
"   ...XooooooooooooooooooX..     ",
"   ..XooooooooooooooooooooX..    ",
"   ..XooXOOXooooooooooooooX..    ",
"   ..XoXO++OXoooooooooooooX..    ",
"   ..XoO++++OoooooooooooooX..    ",
"   ..XoO++++OoooooooooooooX..    ",
"   ..XXXO++OXooooooooooooXX..    ",
"   ..XXoXOOXoooooooooooooXX..    ",
"    ..XXooooooooooooooooXX...    ",
"    ..XXXooooooooooooooXXX..     ",
"    ...XXXooooooooooooXXX...     ",
"     ...XXXXooooooooXXXX...      ",
"     ....XXXXXXXXXXXXXX...       ",
"      ....XXXXXXXXXXXX...        ",
"       .....XXXXXXXX....         ",
"         .............           ",
"            ........             ",
"                                 ",
"                                 ",
"                                 ",
"                                 "
};
