/* XPM */
static char *ce215df290f349f796fa555bc65148b3cusuvNIrw8oacKqO[] = {
/* columns rows colors chars-per-pixel */
"33 33 6 1 ",
"  c None",
". c black",
"X c gray10",
"o c gray16",
"O c #A4000A",
"+ c #E4000E",
/* pixels */
"                                 ",
"                                 ",
"                                 ",
"                                 ",
"           ..........            ",
"          .............          ",
"        ....XXXXXXXX....         ",
"       ...XXooooooooXX...        ",
"      ...XooooooooooooX....      ",
"     ...XooooooooooooooX...      ",
"     ..XooooooooooooooooX...     ",
"    ..XooooooooooooooooooX..     ",
"   ...XooooooooooooooooooX..     ",
"   ..XooooooooooooooooooooX..    ",
"   ..XooooooooooooooXOOXooX..    ",
"   ..XoooooooooooooXO++OXoX..    ",
"   ..XoooooooooooooO++++OoX..    ",
"   ..XoooooooooooooO++++OoX..    ",
"   ..XXooooooooooooXO++OXXX..    ",
"   ..XXoooooooooooooXOOXoXX..    ",
"    ..XXooooooooooooooooXX..     ",
"    ..XXXooooooooooooooXXX..     ",
"    ...XXXooooooooooooXXX..      ",
"     ...XXXXooooooooXXXX...      ",
"      ...XXXXXXXXXXXXXX...       ",
"      ....XXXXXXXXXXXX...        ",
"        ....XXXXXXXX....         ",
"         ..............          ",
"            .........            ",
"                                 ",
"                                 ",
"                                 ",
"                                 "
};
