/* XPM */
static char *_c9466c92b9b4841d686fbe3ed20bd53S0ChlOdg7vu2ZCTI[] = {
/* columns rows colors chars-per-pixel */
"33 33 6 1 ",
"  c None",
". c black",
"X c gray10",
"o c gray16",
"O c #A4000A",
"+ c #E4000E",
/* pixels */
"                                 ",
"                                 ",
"                                 ",
"                                 ",
"           ..........            ",
"         ..............          ",
"        ....XXXXXXXX.....        ",
"      ....XXooooooooXX...        ",
"      ...XooooooooooooX...       ",
"     ...XooooooooooooooX...      ",
"     ..XooooooooooooooooX..      ",
"    ..XooooooooooooooooooX...    ",
"   ...XooooooooooooooooooX...    ",
"   ..XooooooooooooooooooooX..    ",
"   ..XooooooooooooooooooooX..    ",
"   ..XoooXOOXooooooXOOXoooX..    ",
"   ..XooXO++OXooooXO++OXooX..    ",
"   ..XooO++++OooooO++++OooX..    ",
"   ..XXoO++++OooooO++++OoXX..    ",
"   ..XXoXO++OXooooXO++OXoXX..    ",
"    ..XXoXOOXooooooXOOXoXX..     ",
"    ..XXXooooooooooooooXXX..     ",
"    ...XXXooooooooooooXXX...     ",
"     ...XXXXooooooooXXXX...      ",
"      ...XXXXXXXXXXXXXX...       ",
"       ...XXXXXXXXXXXX...        ",
"        ....XXXXXXXX....         ",
"         ..............          ",
"           ..........            ",
"                                 ",
"                                 ",
"                                 ",
"                                 "
};
