/* XPM */
static char *result[] = {
/* columns rows colors chars-per-pixel */
"32 32 6 1 ",
"  c #252120",
". c #666454",
"X c #4C483E",
"o c #434339",
"O c #37372E",
"+ c white",
/* pixels */
"                                ",
"                                ",
"    ........................    ",
"    ........................    ",
"  ..XX..ooooXX..ooooXX..ooOOOO  ",
"  ..XX..ooooXX..ooooXX..ooOOOO  ",
"  ....ooooXX..ooooXX..ooooXXOO  ",
"  ....ooooXX..ooooXX..ooooXXOO  ",
"  ..ooooXX..ooooXX..ooooXX..OO  ",
"  ..ooooXX..ooooXX..ooooXX..OO  ",
"  ..ooXX..ooooXX..ooooXX..ooOO  ",
"  ..ooXX..ooooXX..ooooXX..ooOO  ",
"  ..XX..ooooXX..ooooXX..ooooOO  ",
"  ..XX..ooooXX..ooooXX..ooooOO  ",
"  ....ooooXX..ooooXX..ooooXXOO  ",
"  ....ooooXX..ooooXX..ooooXXOO  ",
"  ..ooooXX..ooooXX..ooooXX..OO  ",
"  ..ooooXX..ooooXX..ooooXX..OO  ",
"  ..ooXX..ooooXX..ooooXX..ooOO  ",
"  ..ooXX..ooooXX..ooooXX..ooOO  ",
"  ..XX..ooooXX..ooooXX..ooooOO  ",
"  ..XX..ooooXX..ooooXX..ooooOO  ",
"  ....ooooXX..ooooXX..ooooXXOO  ",
"  ....ooooXX..ooooXX..ooooXXOO  ",
"  ..ooooXX..ooooXX..ooooXX..OO  ",
"  ..ooooXX..ooooXX..ooooXX..OO  ",
"  ..ooXX..ooooXX..ooooXX..ooOO  ",
"  ..ooXX..ooooXX..ooooXX..ooOO  ",
"    OOOOOOOOOOOOOOOOOOOOOOOO    ",
"    OOOOOOOOOOOOOOOOOOOOOOOO    ",
"                                ",
"                                "
};
